<svg width="13" height="23" viewBox="0 0 13 23" fill="none" xmlns="http://www.w3.org/2000/svg">
<path d="M11 23C10.8684 23.0008 10.7379 22.9755 10.6161 22.9258C10.4943 22.876 10.3834 22.8027 10.29 22.71L1.71 14.12C1.1482 13.5575 0.832642 12.795 0.832642 12C0.832642 11.205 1.1482 10.4425 1.71 9.88L10.29 1.29C10.4783 1.1017 10.7337 0.995911 11 0.995911C11.2663 0.995911 11.5217 1.1017 11.71 1.29C11.8983 1.47831 12.0041 1.7337 12.0041 2C12.0041 2.2663 11.8983 2.5217 11.71 2.71L3.12 11.29C3.02627 11.383 2.95188 11.4936 2.90111 11.6154C2.85034 11.7373 2.8242 11.868 2.8242 12C2.8242 12.132 2.85034 12.2627 2.90111 12.3846C2.95188 12.5064 3.02627 12.617 3.12 12.71L11.71 21.29C11.8037 21.383 11.8781 21.4936 11.9289 21.6154C11.9797 21.7373 12.0058 21.868 12.0058 22C12.0058 22.132 11.9797 22.2627 11.9289 22.3846C11.8781 22.5064 11.8037 22.617 11.71 22.71C11.6166 22.8027 11.5057 22.876 11.3839 22.9258C11.2621 22.9755 11.1316 23.0008 11 23Z" fill="#BEE7E8"/>
</svg>
